<svg xmlns="http://www.w3.org/2000/svg" xmlns:xlink="http://www.w3.org/1999/xlink" viewBox="0 0 1366 884.01"><defs><style>.cls-1{fill:none;}.cls-2{fill:#ffc325;}.cls-3{fill:#020000;}.cls-4{fill:#8b8987;}.cls-5{fill:#ababaa;}.cls-6{fill:#242423;}.cls-7{fill:#393939;}.cls-8{clip-path:url(#clip-path);}.cls-9{fill:#262626;}.cls-10{fill:#e1e1e1;}.cls-11{fill:#e1e0e0;}.cls-12{fill:#070305;}.cls-13{fill:#fdfffc;}.cls-14{opacity:0.05;}.cls-15{clip-path:url(#clip-path-2);}.cls-16{clip-path:url(#clip-path-3);}.cls-17{opacity:0.38;}.cls-18{clip-path:url(#clip-path-4);}.cls-19,.cls-22,.cls-25,.cls-26{fill:#fff;}.cls-20{fill:#070904;}.cls-21{font-size:123.18px;}.cls-21,.cls-23{font-family:AllRoundGothic-DemiOblique;font-weight:300;font-style:oblique;}.cls-22{letter-spacing:-0.01em;}.cls-23{font-size:27.84px;}.cls-24{letter-spacing:-0.06em;}.cls-25{letter-spacing:-0.01em;}.cls-26{letter-spacing:-0.05em;}</style><clipPath id="clip-path"><path class="cls-1" d="M503.19,334,465.07,548.65,220.76,565.2H151.63l5.06-75.28s-10.9-91.11-10.9-92.76,23.37-74.94,23.37-74.94l32.9-33.36L326.4,283.8Z"/></clipPath><clipPath id="clip-path-2"><rect class="cls-1" x="176.66" y="462.64" width="222.45" height="65.18"/></clipPath><clipPath id="clip-path-3"><rect class="cls-1" x="173.78" y="457.48" width="137.11" height="45.33"/></clipPath><clipPath id="clip-path-4"><rect class="cls-1" x="177.66" y="446.77" width="122.62" height="26"/></clipPath></defs><g id="Layer_2" data-name="Layer 2"><g id="Layer_1-2" data-name="Layer 1"><rect class="cls-2" width="1366" height="884.01"/><path class="cls-3" d="M226.07,350.42s.46-7.26-2.86-11.62l.46-3a18.71,18.71,0,0,0,2.9,1.46s-2,9.1,6.93,9.29c0,0,19.09,59.68,51.17,67.39l6.32-12.3s-26.06-7.32-44.72-58.89c0,0,8.44-4.41,1.62-14.07,0,0,8.17-9.35,2.85-20.3s-5.55-11.1-3.78-16.73,5.55-12.72-3.86-15.27-12,13.11-12,13.11-4.75.11-7.87-.08a34.62,34.62,0,0,0-9.45-9.63c-5.82-3.78-10.75-4.4-13.68-1.7s1,10.1,1,10.1-9.72-5.24-13.88,1.08,6.25,12.72,10.49,14c0,0-7.56,3.17-5.63,10.11s8.94,13.8,18,15.57c0,0-.24,4.37-.07,7,0,0-6.05,3.56-5.57,13.11l.36.48,7.2-1.31-.5-1.07,1-3.51s1.47,3.15,6.29,2.15l-.12,2,4.09,2Z"/><path class="cls-4" d="M291,401.68s-23.67,1.59-46.57-57.4l-8,2.31s13.1,48.73,48.27,67.39Z"/><path class="cls-2" d="M240.54,331.9a16.17,16.17,0,0,0,4.57-1.85s8.91,6.36-3.76,12.44-13.36-2.72-12.14-5.67l6.42-2.43s-7.81,1.1-9.84-.06-2.89-2.37-3-5.72v-2.43s4.62-1,10.18-7.46c0,0,.32,4.39,3.43,6.59,0,0-3-5.49-1.64-9.25,0,0,3.7-6.31,1.27-15.91s-2.6-7.8-1.16-15.44,8.5-6,10.82-4.62-1.27,11-2,13.59-1,6.13,4.43,15.26S246.68,329,240.54,331.9Z"/><path class="cls-2" d="M233.54,300.47s-1.54,6.33-2.7,10a16.44,16.44,0,0,1-8.48,9.33,10.91,10.91,0,0,0-4.74-2.43,5.39,5.39,0,0,0-.69-6.13s6-.12,4.39-6.75c0,0,9.25,1.27,6.44-9.06l3.86.85Z"/><path class="cls-2" d="M224.52,294.54s3.25,3.86.26,6.94-8-3.47-8-3.47a43.33,43.33,0,0,0-9.45-7.63c-5.87-3.53-6.45-8.24-5.35-10.18s5.67-2.11,9.51.78S222,291,224.52,294.54Z"/><path class="cls-2" d="M218.33,308s3.65-5.38-9.19-13.65S190.4,288.24,189,291s.47,6.3,9.2,9.83,15.61,7.52,16.94,7.81S217.6,308.92,218.33,308Z"/><path class="cls-2" d="M201.48,315.74s12.08,3.7,13.41,1.82,2.11-4.74-3.61-8-13.51-4.8-15.41-2.28-2.81,6.76,2.34,12.2a27,27,0,0,0,12,7.06v-1.1a20.12,20.12,0,0,1-6.54-6.83S201.26,316.72,201.48,315.74Z"/><path class="cls-2" d="M212,320.71l-1.15,2.86s-2.95-2.18-3.56-3.73Z"/><path class="cls-5" d="M219.09,321.3s-3.17-2.7-3.94,3.55-.73,13.84,2.08,18.7c0,0-2.69,1.46-4.39-4.44s-.35-11.68.27-15.69S218,319.14,219.09,321.3Z"/><path class="cls-5" d="M223.67,348.79a7.31,7.31,0,0,0-2.62-.73,10.56,10.56,0,0,0-2.93-8.06L217,336.8S223.25,338.92,223.67,348.79Z"/><path class="cls-5" d="M211.1,340.89a16.43,16.43,0,0,0-2.08,6.59l-2,.38s-.87-4.09,3.47-9.06A10.41,10.41,0,0,0,211.1,340.89Z"/><path class="cls-6" d="M192.09,371.88a18.17,18.17,0,1,0,1.27-7.41A21.93,21.93,0,0,0,192.09,371.88Z"/><circle class="cls-3" cx="214.37" cy="371.86" r="24.81"/><path class="cls-7" d="M193.36,364.47a22.28,22.28,0,0,1,40.37,18.44,22.28,22.28,0,1,0-40.37-18.44Z"/><path class="cls-6" d="M192.09,371.88a18.17,18.17,0,1,0,1.27-7.41A21.93,21.93,0,0,0,192.09,371.88Z"/><path class="cls-2" d="M216.6,370.15v-7.31c1.11.4,2,2.43,2,3.39h5.25v-2.29c0-1.72-3-5.44-7.25-6.43V354.3h-4.2v3.12c-3.81.54-6.73,2.6-7.68,5.77a7.4,7.4,0,0,0-.26,2.09v3.06c0,1.62,2.19,5.41,7.94,6.58v6.7c-3.26-.69-2.74-3.31-2.74-3.31h-5.2v2.11c0,1.63.54,5.41,7.94,6v3.23h4.2v-3.3a12.24,12.24,0,0,0,2.76-.68,7.91,7.91,0,0,0,4.93-7.39h0a7.92,7.92,0,0,0-5.5-7.6A13.63,13.63,0,0,0,216.6,370.15Zm-4.2-.62c-5.47-1.57-2.55-6.57-.86-6.77l.86-.09Zm4.2,12v-6a3.6,3.6,0,0,1,2.54,3.22S219.28,380.7,216.6,381.48Z"/><path class="cls-5" d="M234.78,304.3s-1.24,17.31-16.7,19.12l-.34.93S235.16,324.77,234.78,304.3Z"/><path class="cls-5" d="M219.63,326.5a20.59,20.59,0,0,1,1.85,10.3l-2.7-2S220.32,333,219.63,326.5Z"/><path class="cls-5" d="M227.77,293.21c-.53,0-1.11,0-1.73,0l-1-1.35s4.94-.11,6.6.66l.26,1.32h0A16.86,16.86,0,0,0,227.77,293.21Z"/><g class="cls-8"><path d="M537.76,490.83s7-32,1.48-52-11.38-26.46-28.31-28c0,0-14.19-20.4-32.59-31.71s-25.5-20.4-104.66-23.94c-40.58-.89-54.77,8.2-65,16.41S289,387.72,289,387.72s-10-6.29-16.86-.89-2.83,11.52-2.83,11.52-24.21-1-42.28,2.45-36.48,7.43-45.57,34.48c0,0-12.64,12.31-13.41,17.85s2.06,24.73,3.3,31.27c0,0-5.52,6.87,3.24,16.63,4.32,4.49,19.07,7.87,19.07,7.87s-17.63,2.33-18.3,6.65,33.49,13,60.76,16,111.31,15.46,163,4,141.52-36.09,149.51-39.08-1.78-6.71-10.87-5.6"/><path class="cls-9" d="M313.28,401.47c-.78-4.89.48-9.05,3.19-15.08,3-6.65,15.27-20.05,23.28-9.43,9.07,12-4,26.09-4,26.09,15.36,1.29,29.46,2.92,41.83,4.59.93-18,8.7-25.35,14.69-28.34s16.52.44,17.3,12.85-6.18,19.41-6.18,19.41c17.12,2.9,27.13,5.21,27.13,5.21s6.82-20.29,8.82-30.76-5.83-11.32-13.81-13.47S395,367.1,395,367.1s-63.19-8-82.26,5.55a190.73,190.73,0,0,0-31.27,27.71c10.95.14,21.6.54,31.85,1.11"/><path class="cls-2" d="M412.37,414.66s-78.83-12.19-133.15-12.75c0,0-16.85,1.55-37.7,11.42s-30.71,20.77-31.71,22.75-1.1,5.86,11.09,8,48.45,7.21,61.53,7.32,19-.64,38.47-9.87c50.45-23.94,60.65-22.61,91.47-26.83"/><path class="cls-2" d="M432.77,417.32s7-19.73,9.09-30.71-5.65-13.74-16.3-16.07-47.78-9-76.39-7.65c-18.51.88-19.06.88-19.06.88s14.41-6.09,45-5.32,57,4.66,70.62,8.65,27.05,10,36.14,18.18,15.08,14.3,19.85,20.62,5.32,6.32,11.53,7.76,19.18,3.55,23.61,26.06c0,0-3.13-8.23-9.64-7S514.59,447.15,513.15,454s-5.55,33.26-5.55,33.26,3.39-19.62,4.83-26.55c1.38-6.65,3.12-15.29,10.22-23.87a9.32,9.32,0,0,1,2.82-2.37c6.74-3.52,11.07,5.84,11.07,5.84h-2s-3-4.64-5.86-4-6.74,2.75-10.56,11.19-5,17.08-5.78,23.36-1.87,14.68-4.87,19.42-5.16,3.57-11.41,4.36-27.33,5.7-27.33,5.7l-30.59,4.75s.44-4.54,1-8.54c0,0,29.05-5.54,38-9.09s14.74-14,14.74-14,2.11,6.43,9.54-5.1,12.19-23.06,8.42-27.49-7.65.88-7.65.88,2-11.64-2.55-16.18A58.09,58.09,0,0,0,490,418s4.31-.78,4.86-4.88-.65-11.22-1-14-10.42-10.31-14.19-12.64S465.36,376.3,455.5,377c-5.55.88-6.88,9.2-9.76,21.4s-4.43,20.73-4.43,20.73Z"/><path class="cls-2" d="M173.67,487.17c-1.66,2.11.33,6.54,2.44,9.86a14.09,14.09,0,0,0,5.39,4.81,26.22,26.22,0,0,0,6.8,2.4c6.1,1.33,31.49,6.54,31.49,6.54s68.85,12.09,93.57,15.3,52.33,1.22,63.86,0,11.09-8.09,11.65-10.64,1.66-15.85,1.66-15.85,1.82-20.36,8.59-36.95c4.59-11.22,11.45-20.72,21.57-21,25.05-.77,18.45,53.77,18.45,53.77,18.24-3.77,38.73-8.95,42.16-11.19s7.68-7.4,9.45-10.84,5.24-12.44,6.49-15.91A97.1,97.1,0,0,0,501,443.68a64,64,0,0,0,.48-10.7c-.28-2.68-.73-4.73-3.64-8s-9.23-6.66-9.23-6.66l-5.63.36s-1.83,2.17-10.22,3.91-18.13-2-18.13-2l-11.14-.25c1.44,4.85,3.41,13.81,4.41,27.36s-3.66,45.49-3.66,45.49h-1.83s.08-19.38-.41-27-4.41-15.88-4.41-15.88c-3.74-8.07-10.4-13.06-15.72-12.81s-9.43,1.91-15.05,7.82-9.23,14.8-9.23,14.8l-17,1s-8,.22-11.64-.55-6.93-4.44-6.93-4.44-5.15,2.94-15.74,6.49-21.46,1.83-23.73-2.5,1.11-8.31,4.6-12.75,15.69-13.41,22.12-16.13A65.28,65.28,0,0,1,369,426.64c4.49-.11,14.86,1.1,11.75,11.36s-17.24,17.46-17.24,17.46c6.27,5.33,9.48,4.6,16.3,4.6S397.07,459,397.07,459s10.53-23.61,23.5-23.61A18.84,18.84,0,0,1,430.82,439c9.43,6.27,12.92,24,12.81,29.71l-.11,22.8c6-35.14,2-59.53,1.06-63.24s-2.28-8.1-2.28-8.1l-24-4.77s-25.14,1.75-43.57,6.6a263.92,263.92,0,0,0-35.87,12.69s-32.15,16-40.91,17.52-28.6-.33-35.2-.82-36.14-4.78-46.95-7.11-6.7-9-6.7-9l-6.55-1.56c-1.77,2.55-9.59,8.54-14.14,9.54s-5.43-4.66-5.43-4.66-11,11.87-11.53,16.85.78,18.18,1.61,22.4,2.28,7.2.61,9.31"/><path class="cls-2" d="M273.9,401.91s-39.07,5.77-64.49,32.38l-6-1.43s17.38-21.25,5.16-23c0,0,11.81-8.44,65.36-8"/><path class="cls-2" d="M534.49,440.33a50.91,50.91,0,0,1,3.94,20.45s2.77-9.2-1.89-20.45"/><path class="cls-9" d="M396.46,487.31c0,22.38,9.05,40.51,20.21,40.51s20.2-18.13,20.2-40.51-9.05-40.51-20.2-40.51-20.21,18.14-20.21,40.51m20.21-32.18c8.86,0,16,14.41,16,32.18s-7.18,32.18-16,32.18-16.05-14.41-16.05-32.18,7.18-32.18,16.05-32.18"/><path class="cls-4" d="M405.94,469.43s8.54,12.64,9.42,3.11,0-12.31,0-12.31l5.1,1.44s-.06,15.08,0,17.41c.11,3.88,5,4.54,10.31,5.54l-1.66,9.2a9,9,0,0,0-7.39-4c-5.1-.12,1.51,21.62,1.51,21.62l-8.09,2.77s.56-16.07-1.11-18.51-7.43,11.1-7.43,11.1-2.66-6.89-3.21-10.55c0,0,6.1-2.49,7.32-8.95s-6.43-11.34-7.32-11.67,2.55-6.21,2.55-6.21"/><path class="cls-4" d="M404.36,487.31c0,13.63,5.51,24.68,12.31,24.68S429,500.94,429,487.31s-5.51-24.67-12.3-24.67-12.31,11-12.31,24.67m12.31-32.18c8.86,0,16,14.41,16,32.18s-7.18,32.18-16,32.18-16.05-14.41-16.05-32.18,7.18-32.18,16.05-32.18"/><path class="cls-9" d="M513.81,468.81c0,16.57,5.36,30,12,30s12-13.43,12-30-5.36-30-12-30-12,13.43-12,30m12-23.82c5.25,0,9.5,10.66,9.5,23.82s-4.25,23.83-9.5,23.83-9.51-10.67-9.51-23.83S520.53,445,525.79,445"/><path class="cls-4" d="M519.43,455.57s5.06,9.36,5.58,2.3,0-9.11,0-9.11l3,1.07s0,11.16,0,12.89c.06,2.87,3,3.36,6.1,4.1l-1,6.81a5.37,5.37,0,0,0-4.38-2.95c-3-.09.9,16,.9,16l-4.8,2.05s.33-11.9-.66-13.71-4.4,8.22-4.4,8.22a63.07,63.07,0,0,1-1.9-7.81,9.09,9.09,0,0,0,4.33-6.63c.73-4.78-3.81-8.39-4.33-8.64s1.51-4.6,1.51-4.6"/><path class="cls-4" d="M518.49,468.81c0,10.09,3.27,18.27,7.3,18.27s7.29-8.18,7.29-18.27-3.27-18.27-7.29-18.27-7.3,8.18-7.3,18.27m7.3-23.82c5.25,0,9.5,10.66,9.5,23.82s-4.25,23.83-9.5,23.83-9.51-10.67-9.51-23.83S520.53,445,525.79,445"/><path class="cls-9" d="M482.69,390.33l5.24,26.44s7-.25,6-8.73l-1-8.48Z"/><path class="cls-9" d="M481.11,389.25l5.9,27.52H484.6s2-4.08-.17-6.57-4-5.41-14-6.65-12.88,1.58-16,4.16-4.66,2.66-4.66,2.66-3-6.32-2.49-11.48a55.38,55.38,0,0,1,2.49-13.22c1.82-6.23,5.66-9.64,14-6a139.56,139.56,0,0,1,17.3,9.57"/><path class="cls-2" d="M448.84,412.67s-2.66,4,3.22,6,16.41,3.11,20,2.44,10.35-.83,12.08-7.87-16.7-10-22.62-8.2-5,5-12.64,7.65"/><path class="cls-10" d="M377,441.83s-6.71,9.86-25.84,17.24-25.55,1.55-26.66.38-1.72-4.15,2.05-8.59,12.36-13.8,22.34-17.63,21.68-6.76,27.72-3.27.39,11.87.39,11.87"/><path class="cls-11" d="M185.65,441.1c1.66,1.88,5.82-.41,10.09-3.92a72.91,72.91,0,0,0,8-7.78,32,32,0,0,0,3.81-5s6.6-9.58,2.27-12.74-12.69,5-16.63,9.47S182,437,185.65,441.1"/><path class="cls-12" d="M212.27,476.31c.34.15,5.91,2.53,17.83,5.43a0,0,0,0,1,0,0c.17.32,1.93,3.85,3.51,7.8h0a47.25,47.25,0,0,1,2.12,6.39.31.31,0,0,0,0,.07l-5.2-1.66c.41.26,13.88,8.46,37.35,10.75,23.83,2.33,31.6-6.21,37.92-12.86s8.75-11.53,8.75-11.53l7.71,6.88s-2-12.81-17.3-13.31l5.9,3.49h0c-.43.19-11.66,5-43.2,4.93s-54.7-6.24-55.41-6.43"/><path class="cls-13" d="M312.26,480.19s-5.19,8.13-8.72,10.79a142.46,142.46,0,0,1-30.39,2.62s19,1.37,27.15.37c0,0-7.94,9.36-26.36,9.53s-36.17-7.24-36.17-7.24l-1.29-6.57a36.24,36.24,0,0,0,5,.83s-5.08-1.53-6.49-3.49a28.67,28.67,0,0,1-2.58-4.7,193.56,193.56,0,0,0,38,3.54c21.54-.09,41.86-5.68,41.86-5.68"/><path class="cls-12" d="M290.64,509.57s-25.28,10.2-48.12-2.11c0,0,8.09,7.87,25.61,8.65s22.51-6.54,22.51-6.54"/><g class="cls-14"><g class="cls-15"><path d="M176.66,491.84s.15,3.75,4.84,10a26.22,26.22,0,0,0,6.8,2.4c6.1,1.33,31.49,6.54,31.49,6.54s68.85,12.09,93.57,15.3,52.33,1.22,63.86,0,11.09-8.09,11.65-10.64,1.66-15.85,1.66-15.85,1.82-20.36,8.59-36.95c-.68.47-26.78,17.95-60.7,17.54,0,0,16.94,20.07-14.81,29.39,0,0,48.4-2.23,59.05-2.11s-3,7.32-27.28,8.7-123.72-8.42-140.69-12.66-38-11.66-38-11.66"/></g></g><g class="cls-14"><g class="cls-16"><path d="M173.78,458.34c0,2.67.78,18.63,2.88,24.62s5.1,7.53,13.87,10.53,48.11,9.32,48.11,9.32l-8.1-8.43h0l5.19,1.66a.42.42,0,0,0,0-.07c-.14-.45-1-3.26-2.11-6.39h0c-1.58-3.95-3.34-7.48-3.51-7.8a0,0,0,0,0,0,0c-11.92-2.9-17.49-5.28-17.83-5.43.71.19,23.77,6.32,55.41,6.43s42.77-4.75,43.19-4.93h0s-58.5,1.28-96-8.7-41.13-13.41-41.13-10.76"/></g></g><path d="M233.62,489.57a42,42,0,0,0-3.51-7.8c.17.32,1.93,3.85,3.51,7.8"/><g class="cls-17"><g class="cls-18"><path class="cls-13" d="M300.28,471.6s-42.35,7.71-122.62-16.47c0,0,2-7.57,4.88-8.33s20.66,17,65.08,22.08,39.36,2.57,52.66,2.72"/></g></g><path class="cls-13" d="M354.44,433.76c-5.41,4.93-6.77,12.24-3,16.33s11.14,3.41,16.54-1.52,6.77-12.25,3-16.34-11.14-3.41-16.54,1.53"/><path class="cls-13" d="M334.37,446.29c-3.13,2.86-3.92,7.1-1.75,9.47s6.46,2,9.59-.88,3.93-7.1,1.76-9.48-6.46-2-9.6.89"/><path class="cls-13" d="M195.07,433a12.76,12.76,0,0,0,.67,4.2,72.91,72.91,0,0,0,8-7.78c-.74-2.65-2.29-4.48-4.09-4.48-2.52,0-4.57,3.61-4.57,8.06"/><path class="cls-19" d="M390.86,409.54c-.08-.31-2.2-9,3.19-16.55s12.8-1.75,12.8-1.75c-2.9-14.05-13-11.56-20.28-4.41s-7.52,21-7.52,21q6.22.86,11.81,1.7"/><path class="cls-19" d="M314.72,401.55q5.44.33,10.72.7s-1.57-5.86-.24-10.43,7.15-13.22,14.55-7.64c0,0-1.49-10.07-9.65-8s-13,11.81-14.22,16.05a36.66,36.66,0,0,0-1.16,9.31"/><path class="cls-19" d="M333.56,389.29c0,1.81,1.16,3.28,2.59,3.28s2.6-1.47,2.6-3.28-1.16-3.28-2.6-3.28-2.59,1.47-2.59,3.28"/><path class="cls-19" d="M400.62,395.85c0,1.81,1.16,3.28,2.6,3.28s2.59-1.47,2.59-3.28-1.16-3.28-2.59-3.28-2.6,1.47-2.6,3.28"/></g><path class="cls-20" d="M502.28,355.23s-28.78,89-35.17,198.63Z"/><text class="cls-21" transform="translate(514.7 462.64)">Auto-Sell<tspan class="cls-22" x="532.89" y="0">.</tspan><tspan class="cls-19" x="562.7" y="0">ai</tspan></text><text class="cls-23" transform="translate(506.33 504.34)">SELL <tspan class="cls-24" x="70.72" y="0">Y</tspan><tspan x="87.11" y="0">OUR CAR IN SECONDS</tspan><tspan class="cls-19" x="376.08" y="0" xml:space="preserve"> - THE SMA</tspan><tspan class="cls-25" x="520.13" y="0">R</tspan><tspan class="cls-19" x="537.3" y="0">TER W</tspan><tspan class="cls-26" x="620.58" y="0">A</tspan><tspan class="cls-19" x="637.87" y="0">Y</tspan></text><path class="cls-2" d="M276.3,399.18s-8-4-3.08-9.56c4.29-4.92,13.72.38,13.72.38l-9.1,9.87"/><path class="cls-19" d="M319.33,375s12-9,23.39-1.25l4.44-5.86S329.25,360.9,319.33,375Z"/><path class="cls-19" d="M413.59,383.66s-9.91-12.07-23.36-7l-1.66-7.17S407,367,413.59,383.66Z"/><path class="cls-3" d="M215.57,319.56a11.48,11.48,0,0,1,1.56,22.72l-1.32,3.88-1.17-.07L208.57,364l-3.9,2.3-3.46,2-1.4-3.08-2.21-4.86,1.32-5,1.65.1.09-.27-1.28-.95,1.87-4.92.43,0-.71-.54,1.48-4.67,2.07-.36,1.72-5.1a11.49,11.49,0,0,1,9.33-19.05Z"/><path class="cls-5" d="M201,358.19l-.51,1.94,2,4.31,8.92-25.7.52.17-8.77,25.14,3.22-1.89,6.42-18.91,1.16.07,1.2-3.54a8.77,8.77,0,1,0-5.73-1.93l-2.79,8.27-2,.35-.4,1.27,1.5,1.15-1,2.95-1.49.08-.51,1.34,1.22.9-1.39,4.12ZM216.34,325a2.24,2.24,0,1,1-2.37,2.1A2.24,2.24,0,0,1,216.34,325Z"/><path class="cls-3" d="M217.08,318.75a3.44,3.44,0,0,1,2.72,2.08l.45,1-1.08.23c-1.14.26-1.85.71-2.1,1.34-.41,1.06.42,2.62.74,3.08l.41.58-.47.54a2.12,2.12,0,0,1-1.78.71,4.3,4.3,0,0,1-3.34-2.68,4.67,4.67,0,0,1,1-5c1.17-1.35,2.35-2,3.49-1.92Z"/><path class="cls-5" d="M216.52,326.37s-2.67-3.84,1.56-4.78c0,0-1.28-2.9-3.85.06S215.31,327.76,216.52,326.37Z"/></g></g></svg>